<svg width="97" height="28" viewBox="0 0 97 28" fill="none" xmlns="http://www.w3.org/2000/svg">
<path d="M7.41598 17.676L0.467976 9.324H7.59598L10.98 13.392L14.364 9.324H21.492L14.544 17.676L21.96 26.604H14.904L10.98 21.924L7.09198 26.604H-2.44007e-05L7.41598 17.676ZM32.4931 27.144C29.1091 27.144 26.4451 26.352 24.5011 24.768C22.5811 23.184 21.6211 20.94 21.6211 18.036C21.6211 15.18 22.4731 12.924 24.1771 11.268C25.9051 9.612 28.3891 8.784 31.6291 8.784C33.6931 8.784 35.4571 9.18 36.9211 9.972C38.4091 10.74 39.5251 11.808 40.2691 13.176C41.0371 14.52 41.4211 16.044 41.4211 17.748V20.088H27.6331C27.8731 21.048 28.4731 21.744 29.4331 22.176C30.3931 22.608 31.7011 22.824 33.3571 22.824C34.4851 22.824 35.6371 22.728 36.8131 22.536C38.0131 22.344 39.0451 22.08 39.9091 21.744V25.92C39.0211 26.28 37.9051 26.568 36.5611 26.784C35.2411 27.024 33.8851 27.144 32.4931 27.144ZM35.4451 16.128C35.3491 15.192 34.9651 14.46 34.2931 13.932C33.6211 13.404 32.6971 13.14 31.5211 13.14C30.3691 13.14 29.4571 13.416 28.7851 13.968C28.1131 14.496 27.7291 15.216 27.6331 16.128H35.4451ZM43.927 9.324H50.047V11.232C50.791 10.416 51.691 9.804 52.747 9.396C53.803 8.988 54.907 8.784 56.059 8.784C58.483 8.784 60.271 9.42 61.423 10.692C62.599 11.94 63.187 13.644 63.187 15.804V26.604H56.851V16.632C56.851 14.688 55.963 13.716 54.187 13.716C53.371 13.716 52.627 13.908 51.955 14.292C51.283 14.652 50.719 15.216 50.263 15.984V26.604H43.927V9.324ZM66.2512 3.09944e-06H72.5872V26.604H66.2512V3.09944e-06ZM85.7497 27.144C83.6137 27.144 81.7417 26.76 80.1337 25.992C78.5257 25.2 77.2777 24.12 76.3897 22.752C75.5257 21.36 75.0937 19.764 75.0937 17.964C75.0937 16.164 75.5257 14.58 76.3897 13.212C77.2777 11.82 78.5257 10.74 80.1337 9.972C81.7417 9.18 83.6137 8.784 85.7497 8.784C87.8857 8.784 89.7577 9.18 91.3657 9.972C92.9737 10.74 94.2097 11.82 95.0737 13.212C95.9617 14.58 96.4057 16.164 96.4057 17.964C96.4057 19.764 95.9617 21.36 95.0737 22.752C94.2097 24.12 92.9737 25.2 91.3657 25.992C89.7577 26.76 87.8857 27.144 85.7497 27.144ZM85.7497 22.212C87.0217 22.212 88.0297 21.84 88.7737 21.096C89.5417 20.328 89.9257 19.284 89.9257 17.964C89.9257 16.644 89.5417 15.612 88.7737 14.868C88.0297 14.1 87.0217 13.716 85.7497 13.716C84.4777 13.716 83.4577 14.1 82.6897 14.868C81.9457 15.612 81.5737 16.644 81.5737 17.964C81.5737 19.284 81.9457 20.328 82.6897 21.096C83.4577 21.84 84.4777 22.212 85.7497 22.212Z" fill="#4F46E5"/>
</svg>
